# xmcd
#
# Track frame offsets:
#	150
#	14050
#	26859
#	41618
#	57268
#	67796
#	79031
#	92894
#	104723
#	117293
#	127935
#	141209
#	153898
#	165515
#	188352
#	199500
#
# Disc length: 2815 seconds
#
# Revision: 0
# Processed by: cddbd v1.5.2PL0 Copyright (c) Steve Scherf et al.
# Submitted via: audiograbber 1.83.01
#
DISCID=ce0afd10
DTITLE=Elmore James - Great Blues Masters Vol.7
DYEAR=2006
DGENRE=Blues
TTITLE0=Please Find My Baby
TTITLE1=Hand in Hand
TTITLE2=I Believe
TTITLE3=I Held My Baby Last Night
TTITLE4=Hawaiian Boogie
TTITLE5=Coming Home
TTITLE6=The 12 Year Old Boy
TTITLE7=Knocking at Your Door
TTITLE8=Cry for Me Baby
TTITLE9=Take Me Where You Go
TTITLE10=Dust My Broom
TTITLE11=The Sky Is Crying
TTITLE12=Rollin' and Tumblin'
TTITLE13=Something Inside of Me
TTITLE14=Look on Yonder Wall
TTITLE15=Shake Your Moneymaker
EXTD=
EXTT0=
EXTT1=
EXTT2=
EXTT3=
EXTT4=
EXTT5=
EXTT6=
EXTT7=
EXTT8=
EXTT9=
EXTT10=
EXTT11=
EXTT12=
EXTT13=
EXTT14=
EXTT15=
PLAYORDER=
